%TF.GenerationSoftware,KiCad,Pcbnew,5.1.9+dfsg1-1*%
%TF.CreationDate,2022-05-26T09:54:06+01:00*%
%TF.ProjectId,ds_lite_clicky_buttons,64735f6c-6974-4655-9f63-6c69636b795f,rev?*%
%TF.SameCoordinates,Original*%
%TF.FileFunction,Copper,L1,Top*%
%TF.FilePolarity,Positive*%
%FSLAX46Y46*%
G04 Gerber Fmt 4.6, Leading zero omitted, Abs format (unit mm)*
G04 Created by KiCad (PCBNEW 5.1.9+dfsg1-1) date 2022-05-26 09:54:06*
%MOMM*%
%LPD*%
G01*
G04 APERTURE LIST*
%TA.AperFunction,SMDPad,CuDef*%
%ADD10R,1.000000X2.000000*%
%TD*%
%TA.AperFunction,ComponentPad*%
%ADD11C,1.500000*%
%TD*%
%TA.AperFunction,ViaPad*%
%ADD12C,0.800000*%
%TD*%
%TA.AperFunction,Conductor*%
%ADD13C,0.250000*%
%TD*%
G04 APERTURE END LIST*
D10*
%TO.P,SW4,3*%
%TO.N,N/C*%
X148188680Y-92298520D03*
%TO.P,SW4,4*%
X152963880Y-92298520D03*
%TO.P,SW4,2*%
%TO.N,Net-(SW4-Pad2)*%
X152963880Y-98800920D03*
%TO.P,SW4,1*%
%TO.N,Net-(SW1-Pad1)*%
X148188680Y-98800920D03*
%TD*%
%TO.P,SW1,3*%
%TO.N,N/C*%
X140685520Y-84795360D03*
%TO.P,SW1,4*%
X145460720Y-84795360D03*
%TO.P,SW1,2*%
%TO.N,Net-(SW1-Pad2)*%
X145460720Y-91297760D03*
%TO.P,SW1,1*%
%TO.N,Net-(SW1-Pad1)*%
X140685520Y-91297760D03*
%TD*%
D11*
%TO.P,R00,1*%
%TO.N,Net-(SW1-Pad2)*%
X135326120Y-86288880D03*
%TD*%
%TO.P,R01,1*%
%TO.N,Net-(SW2-Pad2)*%
X131556760Y-101559360D03*
%TD*%
%TO.P,P00,1*%
%TO.N,Net-(SW4-Pad2)*%
X151323040Y-104297480D03*
%TD*%
%TO.P,P01,1*%
%TO.N,Net-(SW3-Pad2)*%
X137068560Y-106537760D03*
%TD*%
D10*
%TO.P,SW3,3*%
%TO.N,N/C*%
X140685520Y-99796600D03*
%TO.P,SW3,4*%
X145460720Y-99796600D03*
%TO.P,SW3,2*%
%TO.N,Net-(SW3-Pad2)*%
X145460720Y-106299000D03*
%TO.P,SW3,1*%
%TO.N,Net-(SW1-Pad1)*%
X140685520Y-106299000D03*
%TD*%
%TO.P,SW2,3*%
%TO.N,N/C*%
X133177280Y-92303600D03*
%TO.P,SW2,4*%
X137952480Y-92303600D03*
%TO.P,SW2,2*%
%TO.N,Net-(SW2-Pad2)*%
X137952480Y-98806000D03*
%TO.P,SW2,1*%
%TO.N,Net-(SW1-Pad1)*%
X133177280Y-98806000D03*
%TD*%
%TO.P,GND,1*%
%TO.N,Net-(SW1-Pad1)*%
%TA.AperFunction,SMDPad,CuDef*%
G36*
G01*
X150902160Y-85645880D02*
X150902160Y-84645880D01*
G75*
G02*
X151402160Y-84145880I500000J0D01*
G01*
X152402160Y-84145880D01*
G75*
G02*
X152902160Y-84645880I0J-500000D01*
G01*
X152902160Y-85645880D01*
G75*
G02*
X152402160Y-86145880I-500000J0D01*
G01*
X151402160Y-86145880D01*
G75*
G02*
X150902160Y-85645880I0J500000D01*
G01*
G37*
%TD.AperFunction*%
%TD*%
D12*
%TO.N,Net-(SW1-Pad1)*%
X143393160Y-106238040D03*
X145709640Y-103809800D03*
%TD*%
D13*
%TO.N,Net-(SW1-Pad2)*%
X140451840Y-86288880D02*
X145460720Y-91297760D01*
X135326120Y-86288880D02*
X140451840Y-86288880D01*
%TO.N,Net-(SW2-Pad2)*%
X135199120Y-101559360D02*
X137952480Y-98806000D01*
X131556760Y-101559360D02*
X135199120Y-101559360D01*
%TO.N,Net-(SW3-Pad2)*%
X137068560Y-106537760D02*
X139964160Y-103642160D01*
X142803880Y-103642160D02*
X145460720Y-106299000D01*
X139964160Y-103642160D02*
X142803880Y-103642160D01*
%TO.N,Net-(SW4-Pad2)*%
X151323040Y-100441760D02*
X152963880Y-98800920D01*
X151323040Y-104297480D02*
X151323040Y-100441760D01*
%TO.N,Net-(SW1-Pad1)*%
X140685520Y-91297760D02*
X141435520Y-91297760D01*
X151902160Y-95087440D02*
X148188680Y-98800920D01*
X146982518Y-94904560D02*
X151902160Y-94904560D01*
X143375718Y-91297760D02*
X146982518Y-94904560D01*
X140685520Y-91297760D02*
X143375718Y-91297760D01*
X151902160Y-94904560D02*
X151902160Y-95087440D01*
X151902160Y-85145880D02*
X151902160Y-94904560D01*
X143332200Y-106299000D02*
X143393160Y-106238040D01*
X140685520Y-106299000D02*
X143332200Y-106299000D01*
X148188680Y-101330760D02*
X148188680Y-98800920D01*
X145709640Y-103809800D02*
X148188680Y-101330760D01*
X145709640Y-103809800D02*
X145709640Y-102616000D01*
X145709640Y-102616000D02*
X139755880Y-96662240D01*
X135321040Y-96662240D02*
X133236814Y-98746466D01*
X139755880Y-96662240D02*
X135321040Y-96662240D01*
%TD*%
M02*
