%TF.GenerationSoftware,KiCad,Pcbnew,5.1.9+dfsg1-1*%
%TF.CreationDate,2022-05-26T09:54:06+01:00*%
%TF.ProjectId,ds_lite_clicky_buttons,64735f6c-6974-4655-9f63-6c69636b795f,rev?*%
%TF.SameCoordinates,Original*%
%TF.FileFunction,Legend,Top*%
%TF.FilePolarity,Positive*%
%FSLAX46Y46*%
G04 Gerber Fmt 4.6, Leading zero omitted, Abs format (unit mm)*
G04 Created by KiCad (PCBNEW 5.1.9+dfsg1-1) date 2022-05-26 09:54:06*
%MOMM*%
%LPD*%
G01*
G04 APERTURE LIST*
%ADD10C,0.150000*%
G04 APERTURE END LIST*
D10*
X136527708Y-102661980D02*
X136527708Y-101661980D01*
X136765803Y-101661980D01*
X136908660Y-101709600D01*
X137003899Y-101804838D01*
X137051518Y-101900076D01*
X137099137Y-102090552D01*
X137099137Y-102233409D01*
X137051518Y-102423885D01*
X137003899Y-102519123D01*
X136908660Y-102614361D01*
X136765803Y-102661980D01*
X136527708Y-102661980D01*
X137480089Y-102614361D02*
X137622946Y-102661980D01*
X137861041Y-102661980D01*
X137956280Y-102614361D01*
X138003899Y-102566742D01*
X138051518Y-102471504D01*
X138051518Y-102376266D01*
X138003899Y-102281028D01*
X137956280Y-102233409D01*
X137861041Y-102185790D01*
X137670565Y-102138171D01*
X137575327Y-102090552D01*
X137527708Y-102042933D01*
X137480089Y-101947695D01*
X137480089Y-101852457D01*
X137527708Y-101757219D01*
X137575327Y-101709600D01*
X137670565Y-101661980D01*
X137908660Y-101661980D01*
X138051518Y-101709600D01*
X138241994Y-102757219D02*
X139003899Y-102757219D01*
X139670565Y-102614361D02*
X139575327Y-102661980D01*
X139384851Y-102661980D01*
X139289613Y-102614361D01*
X139241994Y-102566742D01*
X139194375Y-102471504D01*
X139194375Y-102185790D01*
X139241994Y-102090552D01*
X139289613Y-102042933D01*
X139384851Y-101995314D01*
X139575327Y-101995314D01*
X139670565Y-102042933D01*
X140241994Y-102661980D02*
X140146756Y-102614361D01*
X140099137Y-102519123D01*
X140099137Y-101661980D01*
X140622946Y-102661980D02*
X140622946Y-101995314D01*
X140622946Y-101661980D02*
X140575327Y-101709600D01*
X140622946Y-101757219D01*
X140670565Y-101709600D01*
X140622946Y-101661980D01*
X140622946Y-101757219D01*
X141527708Y-102614361D02*
X141432470Y-102661980D01*
X141241994Y-102661980D01*
X141146756Y-102614361D01*
X141099137Y-102566742D01*
X141051518Y-102471504D01*
X141051518Y-102185790D01*
X141099137Y-102090552D01*
X141146756Y-102042933D01*
X141241994Y-101995314D01*
X141432470Y-101995314D01*
X141527708Y-102042933D01*
X141956280Y-102661980D02*
X141956280Y-101661980D01*
X142051518Y-102281028D02*
X142337232Y-102661980D01*
X142337232Y-101995314D02*
X141956280Y-102376266D01*
X142670565Y-101995314D02*
X142908660Y-102661980D01*
X143146756Y-101995314D02*
X142908660Y-102661980D01*
X142813422Y-102900076D01*
X142765803Y-102947695D01*
X142670565Y-102995314D01*
X143289613Y-102757219D02*
X144051518Y-102757219D01*
X144289613Y-102661980D02*
X144289613Y-101661980D01*
X144289613Y-102042933D02*
X144384851Y-101995314D01*
X144575327Y-101995314D01*
X144670565Y-102042933D01*
X144718184Y-102090552D01*
X144765803Y-102185790D01*
X144765803Y-102471504D01*
X144718184Y-102566742D01*
X144670565Y-102614361D01*
X144575327Y-102661980D01*
X144384851Y-102661980D01*
X144289613Y-102614361D01*
X145622946Y-101995314D02*
X145622946Y-102661980D01*
X145194375Y-101995314D02*
X145194375Y-102519123D01*
X145241994Y-102614361D01*
X145337232Y-102661980D01*
X145480089Y-102661980D01*
X145575327Y-102614361D01*
X145622946Y-102566742D01*
X145956280Y-101995314D02*
X146337232Y-101995314D01*
X146099137Y-101661980D02*
X146099137Y-102519123D01*
X146146756Y-102614361D01*
X146241994Y-102661980D01*
X146337232Y-102661980D01*
X146527708Y-101995314D02*
X146908660Y-101995314D01*
X146670565Y-101661980D02*
X146670565Y-102519123D01*
X146718184Y-102614361D01*
X146813422Y-102661980D01*
X146908660Y-102661980D01*
X147384851Y-102661980D02*
X147289613Y-102614361D01*
X147241994Y-102566742D01*
X147194375Y-102471504D01*
X147194375Y-102185790D01*
X147241994Y-102090552D01*
X147289613Y-102042933D01*
X147384851Y-101995314D01*
X147527708Y-101995314D01*
X147622946Y-102042933D01*
X147670565Y-102090552D01*
X147718184Y-102185790D01*
X147718184Y-102471504D01*
X147670565Y-102566742D01*
X147622946Y-102614361D01*
X147527708Y-102661980D01*
X147384851Y-102661980D01*
X148146756Y-101995314D02*
X148146756Y-102661980D01*
X148146756Y-102090552D02*
X148194375Y-102042933D01*
X148289613Y-101995314D01*
X148432470Y-101995314D01*
X148527708Y-102042933D01*
X148575327Y-102138171D01*
X148575327Y-102661980D01*
X149003899Y-102614361D02*
X149099137Y-102661980D01*
X149289613Y-102661980D01*
X149384851Y-102614361D01*
X149432470Y-102519123D01*
X149432470Y-102471504D01*
X149384851Y-102376266D01*
X149289613Y-102328647D01*
X149146756Y-102328647D01*
X149051518Y-102281028D01*
X149003899Y-102185790D01*
X149003899Y-102138171D01*
X149051518Y-102042933D01*
X149146756Y-101995314D01*
X149289613Y-101995314D01*
X149384851Y-102042933D01*
X142087815Y-86827051D02*
X141754481Y-86827051D01*
X141754481Y-87350860D02*
X141754481Y-86350860D01*
X142230672Y-86350860D01*
X143040196Y-87350860D02*
X143040196Y-86827051D01*
X142992577Y-86731813D01*
X142897339Y-86684194D01*
X142706862Y-86684194D01*
X142611624Y-86731813D01*
X143040196Y-87303241D02*
X142944958Y-87350860D01*
X142706862Y-87350860D01*
X142611624Y-87303241D01*
X142564005Y-87208003D01*
X142564005Y-87112765D01*
X142611624Y-87017527D01*
X142706862Y-86969908D01*
X142944958Y-86969908D01*
X143040196Y-86922289D01*
X143944958Y-87303241D02*
X143849720Y-87350860D01*
X143659243Y-87350860D01*
X143564005Y-87303241D01*
X143516386Y-87255622D01*
X143468767Y-87160384D01*
X143468767Y-86874670D01*
X143516386Y-86779432D01*
X143564005Y-86731813D01*
X143659243Y-86684194D01*
X143849720Y-86684194D01*
X143944958Y-86731813D01*
X144754481Y-87303241D02*
X144659243Y-87350860D01*
X144468767Y-87350860D01*
X144373529Y-87303241D01*
X144325910Y-87208003D01*
X144325910Y-86827051D01*
X144373529Y-86731813D01*
X144468767Y-86684194D01*
X144659243Y-86684194D01*
X144754481Y-86731813D01*
X144802100Y-86827051D01*
X144802100Y-86922289D01*
X144325910Y-87017527D01*
X145373529Y-87350860D02*
X145278291Y-87303241D01*
X145230672Y-87208003D01*
X145230672Y-86350860D01*
X146135434Y-87303241D02*
X146040196Y-87350860D01*
X145849720Y-87350860D01*
X145754481Y-87303241D01*
X145706862Y-87208003D01*
X145706862Y-86827051D01*
X145754481Y-86731813D01*
X145849720Y-86684194D01*
X146040196Y-86684194D01*
X146135434Y-86731813D01*
X146183053Y-86827051D01*
X146183053Y-86922289D01*
X145706862Y-87017527D01*
X146564005Y-87303241D02*
X146659243Y-87350860D01*
X146849720Y-87350860D01*
X146944958Y-87303241D01*
X146992577Y-87208003D01*
X146992577Y-87160384D01*
X146944958Y-87065146D01*
X146849720Y-87017527D01*
X146706862Y-87017527D01*
X146611624Y-86969908D01*
X146564005Y-86874670D01*
X146564005Y-86827051D01*
X146611624Y-86731813D01*
X146706862Y-86684194D01*
X146849720Y-86684194D01*
X146944958Y-86731813D01*
X147373529Y-87303241D02*
X147468767Y-87350860D01*
X147659243Y-87350860D01*
X147754481Y-87303241D01*
X147802100Y-87208003D01*
X147802100Y-87160384D01*
X147754481Y-87065146D01*
X147659243Y-87017527D01*
X147516386Y-87017527D01*
X147421148Y-86969908D01*
X147373529Y-86874670D01*
X147373529Y-86827051D01*
X147421148Y-86731813D01*
X147516386Y-86684194D01*
X147659243Y-86684194D01*
X147754481Y-86731813D01*
X148087815Y-86684194D02*
X148468767Y-86684194D01*
X148230672Y-86350860D02*
X148230672Y-87208003D01*
X148278291Y-87303241D01*
X148373529Y-87350860D01*
X148468767Y-87350860D01*
X149183053Y-87303241D02*
X149087815Y-87350860D01*
X148897339Y-87350860D01*
X148802100Y-87303241D01*
X148754481Y-87208003D01*
X148754481Y-86827051D01*
X148802100Y-86731813D01*
X148897339Y-86684194D01*
X149087815Y-86684194D01*
X149183053Y-86731813D01*
X149230672Y-86827051D01*
X149230672Y-86922289D01*
X148754481Y-87017527D01*
X150087815Y-87303241D02*
X149992577Y-87350860D01*
X149802100Y-87350860D01*
X149706862Y-87303241D01*
X149659243Y-87255622D01*
X149611624Y-87160384D01*
X149611624Y-86874670D01*
X149659243Y-86779432D01*
X149706862Y-86731813D01*
X149802100Y-86684194D01*
X149992577Y-86684194D01*
X150087815Y-86731813D01*
X150516386Y-87350860D02*
X150516386Y-86350860D01*
X150944958Y-87350860D02*
X150944958Y-86827051D01*
X150897339Y-86731813D01*
X150802100Y-86684194D01*
X150659243Y-86684194D01*
X150564005Y-86731813D01*
X150516386Y-86779432D01*
X141851594Y-88005659D02*
X141899213Y-87958040D01*
X141994451Y-87910420D01*
X142232546Y-87910420D01*
X142327784Y-87958040D01*
X142375403Y-88005659D01*
X142423022Y-88100897D01*
X142423022Y-88196135D01*
X142375403Y-88338992D01*
X141803975Y-88910420D01*
X142423022Y-88910420D01*
X143042070Y-87910420D02*
X143137308Y-87910420D01*
X143232546Y-87958040D01*
X143280165Y-88005659D01*
X143327784Y-88100897D01*
X143375403Y-88291373D01*
X143375403Y-88529468D01*
X143327784Y-88719944D01*
X143280165Y-88815182D01*
X143232546Y-88862801D01*
X143137308Y-88910420D01*
X143042070Y-88910420D01*
X142946832Y-88862801D01*
X142899213Y-88815182D01*
X142851594Y-88719944D01*
X142803975Y-88529468D01*
X142803975Y-88291373D01*
X142851594Y-88100897D01*
X142899213Y-88005659D01*
X142946832Y-87958040D01*
X143042070Y-87910420D01*
X143756356Y-88005659D02*
X143803975Y-87958040D01*
X143899213Y-87910420D01*
X144137308Y-87910420D01*
X144232546Y-87958040D01*
X144280165Y-88005659D01*
X144327784Y-88100897D01*
X144327784Y-88196135D01*
X144280165Y-88338992D01*
X143708737Y-88910420D01*
X144327784Y-88910420D01*
X144708737Y-88005659D02*
X144756356Y-87958040D01*
X144851594Y-87910420D01*
X145089689Y-87910420D01*
X145184927Y-87958040D01*
X145232546Y-88005659D01*
X145280165Y-88100897D01*
X145280165Y-88196135D01*
X145232546Y-88338992D01*
X144661118Y-88910420D01*
X145280165Y-88910420D01*
%TO.C,R00*%
X137314702Y-86858100D02*
X136981369Y-86381910D01*
X136743274Y-86858100D02*
X136743274Y-85858100D01*
X137124226Y-85858100D01*
X137219464Y-85905720D01*
X137267083Y-85953339D01*
X137314702Y-86048577D01*
X137314702Y-86191434D01*
X137267083Y-86286672D01*
X137219464Y-86334291D01*
X137124226Y-86381910D01*
X136743274Y-86381910D01*
X137933750Y-85858100D02*
X138028988Y-85858100D01*
X138124226Y-85905720D01*
X138171845Y-85953339D01*
X138219464Y-86048577D01*
X138267083Y-86239053D01*
X138267083Y-86477148D01*
X138219464Y-86667624D01*
X138171845Y-86762862D01*
X138124226Y-86810481D01*
X138028988Y-86858100D01*
X137933750Y-86858100D01*
X137838512Y-86810481D01*
X137790893Y-86762862D01*
X137743274Y-86667624D01*
X137695655Y-86477148D01*
X137695655Y-86239053D01*
X137743274Y-86048577D01*
X137790893Y-85953339D01*
X137838512Y-85905720D01*
X137933750Y-85858100D01*
X138886131Y-85858100D02*
X138981369Y-85858100D01*
X139076607Y-85905720D01*
X139124226Y-85953339D01*
X139171845Y-86048577D01*
X139219464Y-86239053D01*
X139219464Y-86477148D01*
X139171845Y-86667624D01*
X139124226Y-86762862D01*
X139076607Y-86810481D01*
X138981369Y-86858100D01*
X138886131Y-86858100D01*
X138790893Y-86810481D01*
X138743274Y-86762862D01*
X138695655Y-86667624D01*
X138648036Y-86477148D01*
X138648036Y-86239053D01*
X138695655Y-86048577D01*
X138743274Y-85953339D01*
X138790893Y-85905720D01*
X138886131Y-85858100D01*
%TO.C,R01*%
X133433582Y-102057460D02*
X133100249Y-101581270D01*
X132862154Y-102057460D02*
X132862154Y-101057460D01*
X133243106Y-101057460D01*
X133338344Y-101105080D01*
X133385963Y-101152699D01*
X133433582Y-101247937D01*
X133433582Y-101390794D01*
X133385963Y-101486032D01*
X133338344Y-101533651D01*
X133243106Y-101581270D01*
X132862154Y-101581270D01*
X134052630Y-101057460D02*
X134147868Y-101057460D01*
X134243106Y-101105080D01*
X134290725Y-101152699D01*
X134338344Y-101247937D01*
X134385963Y-101438413D01*
X134385963Y-101676508D01*
X134338344Y-101866984D01*
X134290725Y-101962222D01*
X134243106Y-102009841D01*
X134147868Y-102057460D01*
X134052630Y-102057460D01*
X133957392Y-102009841D01*
X133909773Y-101962222D01*
X133862154Y-101866984D01*
X133814535Y-101676508D01*
X133814535Y-101438413D01*
X133862154Y-101247937D01*
X133909773Y-101152699D01*
X133957392Y-101105080D01*
X134052630Y-101057460D01*
X135338344Y-102057460D02*
X134766916Y-102057460D01*
X135052630Y-102057460D02*
X135052630Y-101057460D01*
X134957392Y-101200318D01*
X134862154Y-101295556D01*
X134766916Y-101343175D01*
%TO.C,P00*%
X147269034Y-105049580D02*
X147269034Y-104049580D01*
X147649986Y-104049580D01*
X147745224Y-104097200D01*
X147792843Y-104144819D01*
X147840462Y-104240057D01*
X147840462Y-104382914D01*
X147792843Y-104478152D01*
X147745224Y-104525771D01*
X147649986Y-104573390D01*
X147269034Y-104573390D01*
X148459510Y-104049580D02*
X148554748Y-104049580D01*
X148649986Y-104097200D01*
X148697605Y-104144819D01*
X148745224Y-104240057D01*
X148792843Y-104430533D01*
X148792843Y-104668628D01*
X148745224Y-104859104D01*
X148697605Y-104954342D01*
X148649986Y-105001961D01*
X148554748Y-105049580D01*
X148459510Y-105049580D01*
X148364272Y-105001961D01*
X148316653Y-104954342D01*
X148269034Y-104859104D01*
X148221415Y-104668628D01*
X148221415Y-104430533D01*
X148269034Y-104240057D01*
X148316653Y-104144819D01*
X148364272Y-104097200D01*
X148459510Y-104049580D01*
X149411891Y-104049580D02*
X149507129Y-104049580D01*
X149602367Y-104097200D01*
X149649986Y-104144819D01*
X149697605Y-104240057D01*
X149745224Y-104430533D01*
X149745224Y-104668628D01*
X149697605Y-104859104D01*
X149649986Y-104954342D01*
X149602367Y-105001961D01*
X149507129Y-105049580D01*
X149411891Y-105049580D01*
X149316653Y-105001961D01*
X149269034Y-104954342D01*
X149221415Y-104859104D01*
X149173796Y-104668628D01*
X149173796Y-104430533D01*
X149221415Y-104240057D01*
X149269034Y-104144819D01*
X149316653Y-104097200D01*
X149411891Y-104049580D01*
%TO.C,P01*%
X136499434Y-105262940D02*
X136499434Y-104262940D01*
X136880386Y-104262940D01*
X136975624Y-104310560D01*
X137023243Y-104358179D01*
X137070862Y-104453417D01*
X137070862Y-104596274D01*
X137023243Y-104691512D01*
X136975624Y-104739131D01*
X136880386Y-104786750D01*
X136499434Y-104786750D01*
X137689910Y-104262940D02*
X137785148Y-104262940D01*
X137880386Y-104310560D01*
X137928005Y-104358179D01*
X137975624Y-104453417D01*
X138023243Y-104643893D01*
X138023243Y-104881988D01*
X137975624Y-105072464D01*
X137928005Y-105167702D01*
X137880386Y-105215321D01*
X137785148Y-105262940D01*
X137689910Y-105262940D01*
X137594672Y-105215321D01*
X137547053Y-105167702D01*
X137499434Y-105072464D01*
X137451815Y-104881988D01*
X137451815Y-104643893D01*
X137499434Y-104453417D01*
X137547053Y-104358179D01*
X137594672Y-104310560D01*
X137689910Y-104262940D01*
X138975624Y-105262940D02*
X138404196Y-105262940D01*
X138689910Y-105262940D02*
X138689910Y-104262940D01*
X138594672Y-104405798D01*
X138499434Y-104501036D01*
X138404196Y-104548655D01*
%TO.C,GND*%
X148005895Y-84828760D02*
X147910657Y-84781140D01*
X147767800Y-84781140D01*
X147624942Y-84828760D01*
X147529704Y-84923998D01*
X147482085Y-85019236D01*
X147434466Y-85209712D01*
X147434466Y-85352569D01*
X147482085Y-85543045D01*
X147529704Y-85638283D01*
X147624942Y-85733521D01*
X147767800Y-85781140D01*
X147863038Y-85781140D01*
X148005895Y-85733521D01*
X148053514Y-85685902D01*
X148053514Y-85352569D01*
X147863038Y-85352569D01*
X148482085Y-85781140D02*
X148482085Y-84781140D01*
X149053514Y-85781140D01*
X149053514Y-84781140D01*
X149529704Y-85781140D02*
X149529704Y-84781140D01*
X149767800Y-84781140D01*
X149910657Y-84828760D01*
X150005895Y-84923998D01*
X150053514Y-85019236D01*
X150101133Y-85209712D01*
X150101133Y-85352569D01*
X150053514Y-85543045D01*
X150005895Y-85638283D01*
X149910657Y-85733521D01*
X149767800Y-85781140D01*
X149529704Y-85781140D01*
%TD*%
M02*
