%TF.GenerationSoftware,KiCad,Pcbnew,5.1.9+dfsg1-1*%
%TF.CreationDate,2022-06-22T08:53:18+01:00*%
%TF.ProjectId,ds_lite_clicky_d_pad,64735f6c-6974-4655-9f63-6c69636b795f,rev?*%
%TF.SameCoordinates,Original*%
%TF.FileFunction,Legend,Top*%
%TF.FilePolarity,Positive*%
%FSLAX46Y46*%
G04 Gerber Fmt 4.6, Leading zero omitted, Abs format (unit mm)*
G04 Created by KiCad (PCBNEW 5.1.9+dfsg1-1) date 2022-06-22 08:53:18*
%MOMM*%
%LPD*%
G01*
G04 APERTURE LIST*
%ADD10C,0.150000*%
%ADD11C,0.120000*%
G04 APERTURE END LIST*
D10*
X149523179Y-105069900D02*
X149523179Y-104069900D01*
X149761274Y-104069900D01*
X149904131Y-104117520D01*
X149999369Y-104212758D01*
X150046988Y-104307996D01*
X150094607Y-104498472D01*
X150094607Y-104641329D01*
X150046988Y-104831805D01*
X149999369Y-104927043D01*
X149904131Y-105022281D01*
X149761274Y-105069900D01*
X149523179Y-105069900D01*
X150475560Y-105022281D02*
X150618417Y-105069900D01*
X150856512Y-105069900D01*
X150951750Y-105022281D01*
X150999369Y-104974662D01*
X151046988Y-104879424D01*
X151046988Y-104784186D01*
X150999369Y-104688948D01*
X150951750Y-104641329D01*
X150856512Y-104593710D01*
X150666036Y-104546091D01*
X150570798Y-104498472D01*
X150523179Y-104450853D01*
X150475560Y-104355615D01*
X150475560Y-104260377D01*
X150523179Y-104165139D01*
X150570798Y-104117520D01*
X150666036Y-104069900D01*
X150904131Y-104069900D01*
X151046988Y-104117520D01*
X151237464Y-105165139D02*
X151999369Y-105165139D01*
X152666036Y-105022281D02*
X152570798Y-105069900D01*
X152380321Y-105069900D01*
X152285083Y-105022281D01*
X152237464Y-104974662D01*
X152189845Y-104879424D01*
X152189845Y-104593710D01*
X152237464Y-104498472D01*
X152285083Y-104450853D01*
X152380321Y-104403234D01*
X152570798Y-104403234D01*
X152666036Y-104450853D01*
X153237464Y-105069900D02*
X153142226Y-105022281D01*
X153094607Y-104927043D01*
X153094607Y-104069900D01*
X153618417Y-105069900D02*
X153618417Y-104403234D01*
X153618417Y-104069900D02*
X153570798Y-104117520D01*
X153618417Y-104165139D01*
X153666036Y-104117520D01*
X153618417Y-104069900D01*
X153618417Y-104165139D01*
X154523179Y-105022281D02*
X154427940Y-105069900D01*
X154237464Y-105069900D01*
X154142226Y-105022281D01*
X154094607Y-104974662D01*
X154046988Y-104879424D01*
X154046988Y-104593710D01*
X154094607Y-104498472D01*
X154142226Y-104450853D01*
X154237464Y-104403234D01*
X154427940Y-104403234D01*
X154523179Y-104450853D01*
X154951750Y-105069900D02*
X154951750Y-104069900D01*
X155046988Y-104688948D02*
X155332702Y-105069900D01*
X155332702Y-104403234D02*
X154951750Y-104784186D01*
X155666036Y-104403234D02*
X155904131Y-105069900D01*
X156142226Y-104403234D02*
X155904131Y-105069900D01*
X155808893Y-105307996D01*
X155761274Y-105355615D01*
X155666036Y-105403234D01*
X156285083Y-105165139D02*
X157046988Y-105165139D01*
X157713655Y-105069900D02*
X157713655Y-104069900D01*
X157713655Y-105022281D02*
X157618417Y-105069900D01*
X157427940Y-105069900D01*
X157332702Y-105022281D01*
X157285083Y-104974662D01*
X157237464Y-104879424D01*
X157237464Y-104593710D01*
X157285083Y-104498472D01*
X157332702Y-104450853D01*
X157427940Y-104403234D01*
X157618417Y-104403234D01*
X157713655Y-104450853D01*
X158189845Y-104403234D02*
X158189845Y-105403234D01*
X158189845Y-104450853D02*
X158285083Y-104403234D01*
X158475560Y-104403234D01*
X158570798Y-104450853D01*
X158618417Y-104498472D01*
X158666036Y-104593710D01*
X158666036Y-104879424D01*
X158618417Y-104974662D01*
X158570798Y-105022281D01*
X158475560Y-105069900D01*
X158285083Y-105069900D01*
X158189845Y-105022281D01*
X159523179Y-105069900D02*
X159523179Y-104546091D01*
X159475560Y-104450853D01*
X159380321Y-104403234D01*
X159189845Y-104403234D01*
X159094607Y-104450853D01*
X159523179Y-105022281D02*
X159427940Y-105069900D01*
X159189845Y-105069900D01*
X159094607Y-105022281D01*
X159046988Y-104927043D01*
X159046988Y-104831805D01*
X159094607Y-104736567D01*
X159189845Y-104688948D01*
X159427940Y-104688948D01*
X159523179Y-104641329D01*
X160427940Y-105069900D02*
X160427940Y-104069900D01*
X160427940Y-105022281D02*
X160332702Y-105069900D01*
X160142226Y-105069900D01*
X160046988Y-105022281D01*
X159999369Y-104974662D01*
X159951750Y-104879424D01*
X159951750Y-104593710D01*
X159999369Y-104498472D01*
X160046988Y-104450853D01*
X160142226Y-104403234D01*
X160332702Y-104403234D01*
X160427940Y-104450853D01*
X150683175Y-99831851D02*
X150349841Y-99831851D01*
X150349841Y-100355660D02*
X150349841Y-99355660D01*
X150826032Y-99355660D01*
X151635556Y-100355660D02*
X151635556Y-99831851D01*
X151587937Y-99736613D01*
X151492699Y-99688994D01*
X151302222Y-99688994D01*
X151206984Y-99736613D01*
X151635556Y-100308041D02*
X151540318Y-100355660D01*
X151302222Y-100355660D01*
X151206984Y-100308041D01*
X151159365Y-100212803D01*
X151159365Y-100117565D01*
X151206984Y-100022327D01*
X151302222Y-99974708D01*
X151540318Y-99974708D01*
X151635556Y-99927089D01*
X152540318Y-100308041D02*
X152445080Y-100355660D01*
X152254603Y-100355660D01*
X152159365Y-100308041D01*
X152111746Y-100260422D01*
X152064127Y-100165184D01*
X152064127Y-99879470D01*
X152111746Y-99784232D01*
X152159365Y-99736613D01*
X152254603Y-99688994D01*
X152445080Y-99688994D01*
X152540318Y-99736613D01*
X153349841Y-100308041D02*
X153254603Y-100355660D01*
X153064127Y-100355660D01*
X152968889Y-100308041D01*
X152921270Y-100212803D01*
X152921270Y-99831851D01*
X152968889Y-99736613D01*
X153064127Y-99688994D01*
X153254603Y-99688994D01*
X153349841Y-99736613D01*
X153397460Y-99831851D01*
X153397460Y-99927089D01*
X152921270Y-100022327D01*
X153968889Y-100355660D02*
X153873651Y-100308041D01*
X153826032Y-100212803D01*
X153826032Y-99355660D01*
X154730794Y-100308041D02*
X154635556Y-100355660D01*
X154445080Y-100355660D01*
X154349841Y-100308041D01*
X154302222Y-100212803D01*
X154302222Y-99831851D01*
X154349841Y-99736613D01*
X154445080Y-99688994D01*
X154635556Y-99688994D01*
X154730794Y-99736613D01*
X154778413Y-99831851D01*
X154778413Y-99927089D01*
X154302222Y-100022327D01*
X155159365Y-100308041D02*
X155254603Y-100355660D01*
X155445080Y-100355660D01*
X155540318Y-100308041D01*
X155587937Y-100212803D01*
X155587937Y-100165184D01*
X155540318Y-100069946D01*
X155445080Y-100022327D01*
X155302222Y-100022327D01*
X155206984Y-99974708D01*
X155159365Y-99879470D01*
X155159365Y-99831851D01*
X155206984Y-99736613D01*
X155302222Y-99688994D01*
X155445080Y-99688994D01*
X155540318Y-99736613D01*
X155968889Y-100308041D02*
X156064127Y-100355660D01*
X156254603Y-100355660D01*
X156349841Y-100308041D01*
X156397460Y-100212803D01*
X156397460Y-100165184D01*
X156349841Y-100069946D01*
X156254603Y-100022327D01*
X156111746Y-100022327D01*
X156016508Y-99974708D01*
X155968889Y-99879470D01*
X155968889Y-99831851D01*
X156016508Y-99736613D01*
X156111746Y-99688994D01*
X156254603Y-99688994D01*
X156349841Y-99736613D01*
X156683175Y-99688994D02*
X157064127Y-99688994D01*
X156826032Y-99355660D02*
X156826032Y-100212803D01*
X156873651Y-100308041D01*
X156968889Y-100355660D01*
X157064127Y-100355660D01*
X157778413Y-100308041D02*
X157683175Y-100355660D01*
X157492699Y-100355660D01*
X157397460Y-100308041D01*
X157349841Y-100212803D01*
X157349841Y-99831851D01*
X157397460Y-99736613D01*
X157492699Y-99688994D01*
X157683175Y-99688994D01*
X157778413Y-99736613D01*
X157826032Y-99831851D01*
X157826032Y-99927089D01*
X157349841Y-100022327D01*
X158683175Y-100308041D02*
X158587937Y-100355660D01*
X158397460Y-100355660D01*
X158302222Y-100308041D01*
X158254603Y-100260422D01*
X158206984Y-100165184D01*
X158206984Y-99879470D01*
X158254603Y-99784232D01*
X158302222Y-99736613D01*
X158397460Y-99688994D01*
X158587937Y-99688994D01*
X158683175Y-99736613D01*
X159111746Y-100355660D02*
X159111746Y-99355660D01*
X159540318Y-100355660D02*
X159540318Y-99831851D01*
X159492699Y-99736613D01*
X159397460Y-99688994D01*
X159254603Y-99688994D01*
X159159365Y-99736613D01*
X159111746Y-99784232D01*
X155902874Y-101193339D02*
X155950493Y-101145720D01*
X156045731Y-101098100D01*
X156283826Y-101098100D01*
X156379064Y-101145720D01*
X156426683Y-101193339D01*
X156474302Y-101288577D01*
X156474302Y-101383815D01*
X156426683Y-101526672D01*
X155855255Y-102098100D01*
X156474302Y-102098100D01*
X157093350Y-101098100D02*
X157188588Y-101098100D01*
X157283826Y-101145720D01*
X157331445Y-101193339D01*
X157379064Y-101288577D01*
X157426683Y-101479053D01*
X157426683Y-101717148D01*
X157379064Y-101907624D01*
X157331445Y-102002862D01*
X157283826Y-102050481D01*
X157188588Y-102098100D01*
X157093350Y-102098100D01*
X156998112Y-102050481D01*
X156950493Y-102002862D01*
X156902874Y-101907624D01*
X156855255Y-101717148D01*
X156855255Y-101479053D01*
X156902874Y-101288577D01*
X156950493Y-101193339D01*
X156998112Y-101145720D01*
X157093350Y-101098100D01*
X157807636Y-101193339D02*
X157855255Y-101145720D01*
X157950493Y-101098100D01*
X158188588Y-101098100D01*
X158283826Y-101145720D01*
X158331445Y-101193339D01*
X158379064Y-101288577D01*
X158379064Y-101383815D01*
X158331445Y-101526672D01*
X157760017Y-102098100D01*
X158379064Y-102098100D01*
X158760017Y-101193339D02*
X158807636Y-101145720D01*
X158902874Y-101098100D01*
X159140969Y-101098100D01*
X159236207Y-101145720D01*
X159283826Y-101193339D01*
X159331445Y-101288577D01*
X159331445Y-101383815D01*
X159283826Y-101526672D01*
X158712398Y-102098100D01*
X159331445Y-102098100D01*
D11*
%TO.C,R1*%
X156297084Y-93487980D02*
X155787636Y-93487980D01*
X156297084Y-94532980D02*
X155787636Y-94532980D01*
D10*
X154651413Y-96240860D02*
X154318080Y-95764670D01*
X154079984Y-96240860D02*
X154079984Y-95240860D01*
X154460937Y-95240860D01*
X154556175Y-95288480D01*
X154603794Y-95336099D01*
X154651413Y-95431337D01*
X154651413Y-95574194D01*
X154603794Y-95669432D01*
X154556175Y-95717051D01*
X154460937Y-95764670D01*
X154079984Y-95764670D01*
X155603794Y-96240860D02*
X155032365Y-96240860D01*
X155318080Y-96240860D02*
X155318080Y-95240860D01*
X155222841Y-95383718D01*
X155127603Y-95478956D01*
X155032365Y-95526575D01*
%TO.C,TP1*%
X157945295Y-84598260D02*
X158516723Y-84598260D01*
X158231009Y-85598260D02*
X158231009Y-84598260D01*
X158850057Y-85598260D02*
X158850057Y-84598260D01*
X159231009Y-84598260D01*
X159326247Y-84645880D01*
X159373866Y-84693499D01*
X159421485Y-84788737D01*
X159421485Y-84931594D01*
X159373866Y-85026832D01*
X159326247Y-85074451D01*
X159231009Y-85122070D01*
X158850057Y-85122070D01*
X160373866Y-85598260D02*
X159802438Y-85598260D01*
X160088152Y-85598260D02*
X160088152Y-84598260D01*
X159992914Y-84741118D01*
X159897676Y-84836356D01*
X159802438Y-84883975D01*
%TO.C,TP5*%
X158311571Y-86497925D02*
X158740142Y-86497925D01*
X158525857Y-87247925D02*
X158525857Y-86497925D01*
X158990142Y-87247925D02*
X158990142Y-86497925D01*
X159275857Y-86497925D01*
X159347285Y-86533640D01*
X159383000Y-86569354D01*
X159418714Y-86640782D01*
X159418714Y-86747925D01*
X159383000Y-86819354D01*
X159347285Y-86855068D01*
X159275857Y-86890782D01*
X158990142Y-86890782D01*
X160097285Y-86497925D02*
X159740142Y-86497925D01*
X159704428Y-86855068D01*
X159740142Y-86819354D01*
X159811571Y-86783640D01*
X159990142Y-86783640D01*
X160061571Y-86819354D01*
X160097285Y-86855068D01*
X160133000Y-86926497D01*
X160133000Y-87105068D01*
X160097285Y-87176497D01*
X160061571Y-87212211D01*
X159990142Y-87247925D01*
X159811571Y-87247925D01*
X159740142Y-87212211D01*
X159704428Y-87176497D01*
%TO.C,TP6*%
X154384215Y-91298780D02*
X154955643Y-91298780D01*
X154669929Y-92298780D02*
X154669929Y-91298780D01*
X155288977Y-92298780D02*
X155288977Y-91298780D01*
X155669929Y-91298780D01*
X155765167Y-91346400D01*
X155812786Y-91394019D01*
X155860405Y-91489257D01*
X155860405Y-91632114D01*
X155812786Y-91727352D01*
X155765167Y-91774971D01*
X155669929Y-91822590D01*
X155288977Y-91822590D01*
X156717548Y-91298780D02*
X156527072Y-91298780D01*
X156431834Y-91346400D01*
X156384215Y-91394019D01*
X156288977Y-91536876D01*
X156241358Y-91727352D01*
X156241358Y-92108304D01*
X156288977Y-92203542D01*
X156336596Y-92251161D01*
X156431834Y-92298780D01*
X156622310Y-92298780D01*
X156717548Y-92251161D01*
X156765167Y-92203542D01*
X156812786Y-92108304D01*
X156812786Y-91870209D01*
X156765167Y-91774971D01*
X156717548Y-91727352D01*
X156622310Y-91679733D01*
X156431834Y-91679733D01*
X156336596Y-91727352D01*
X156288977Y-91774971D01*
X156241358Y-91870209D01*
%TO.C,TP4*%
X152494455Y-88438740D02*
X153065883Y-88438740D01*
X152780169Y-89438740D02*
X152780169Y-88438740D01*
X153399217Y-89438740D02*
X153399217Y-88438740D01*
X153780169Y-88438740D01*
X153875407Y-88486360D01*
X153923026Y-88533979D01*
X153970645Y-88629217D01*
X153970645Y-88772074D01*
X153923026Y-88867312D01*
X153875407Y-88914931D01*
X153780169Y-88962550D01*
X153399217Y-88962550D01*
X154827788Y-88772074D02*
X154827788Y-89438740D01*
X154589693Y-88391121D02*
X154351598Y-89105407D01*
X154970645Y-89105407D01*
%TO.C,TP3*%
X158077375Y-95520260D02*
X158648803Y-95520260D01*
X158363089Y-96520260D02*
X158363089Y-95520260D01*
X158982137Y-96520260D02*
X158982137Y-95520260D01*
X159363089Y-95520260D01*
X159458327Y-95567880D01*
X159505946Y-95615499D01*
X159553565Y-95710737D01*
X159553565Y-95853594D01*
X159505946Y-95948832D01*
X159458327Y-95996451D01*
X159363089Y-96044070D01*
X158982137Y-96044070D01*
X159886899Y-95520260D02*
X160505946Y-95520260D01*
X160172613Y-95901213D01*
X160315470Y-95901213D01*
X160410708Y-95948832D01*
X160458327Y-95996451D01*
X160505946Y-96091689D01*
X160505946Y-96329784D01*
X160458327Y-96425022D01*
X160410708Y-96472641D01*
X160315470Y-96520260D01*
X160029756Y-96520260D01*
X159934518Y-96472641D01*
X159886899Y-96425022D01*
%TO.C,TP2*%
X147648135Y-102302060D02*
X148219563Y-102302060D01*
X147933849Y-103302060D02*
X147933849Y-102302060D01*
X148552897Y-103302060D02*
X148552897Y-102302060D01*
X148933849Y-102302060D01*
X149029087Y-102349680D01*
X149076706Y-102397299D01*
X149124325Y-102492537D01*
X149124325Y-102635394D01*
X149076706Y-102730632D01*
X149029087Y-102778251D01*
X148933849Y-102825870D01*
X148552897Y-102825870D01*
X149505278Y-102397299D02*
X149552897Y-102349680D01*
X149648135Y-102302060D01*
X149886230Y-102302060D01*
X149981468Y-102349680D01*
X150029087Y-102397299D01*
X150076706Y-102492537D01*
X150076706Y-102587775D01*
X150029087Y-102730632D01*
X149457659Y-103302060D01*
X150076706Y-103302060D01*
%TO.C,TP7*%
X158357291Y-89967565D02*
X158785862Y-89967565D01*
X158571577Y-90717565D02*
X158571577Y-89967565D01*
X159035862Y-90717565D02*
X159035862Y-89967565D01*
X159321577Y-89967565D01*
X159393005Y-90003280D01*
X159428720Y-90038994D01*
X159464434Y-90110422D01*
X159464434Y-90217565D01*
X159428720Y-90288994D01*
X159393005Y-90324708D01*
X159321577Y-90360422D01*
X159035862Y-90360422D01*
X159714434Y-89967565D02*
X160214434Y-89967565D01*
X159893005Y-90717565D01*
%TO.C,SP+*%
X147256358Y-84524481D02*
X147399215Y-84572100D01*
X147637310Y-84572100D01*
X147732548Y-84524481D01*
X147780167Y-84476862D01*
X147827786Y-84381624D01*
X147827786Y-84286386D01*
X147780167Y-84191148D01*
X147732548Y-84143529D01*
X147637310Y-84095910D01*
X147446834Y-84048291D01*
X147351596Y-84000672D01*
X147303977Y-83953053D01*
X147256358Y-83857815D01*
X147256358Y-83762577D01*
X147303977Y-83667339D01*
X147351596Y-83619720D01*
X147446834Y-83572100D01*
X147684929Y-83572100D01*
X147827786Y-83619720D01*
X148256358Y-84572100D02*
X148256358Y-83572100D01*
X148637310Y-83572100D01*
X148732548Y-83619720D01*
X148780167Y-83667339D01*
X148827786Y-83762577D01*
X148827786Y-83905434D01*
X148780167Y-84000672D01*
X148732548Y-84048291D01*
X148637310Y-84095910D01*
X148256358Y-84095910D01*
X149256358Y-84191148D02*
X150018262Y-84191148D01*
X149637310Y-84572100D02*
X149637310Y-83810196D01*
%TD*%
M02*
