%TF.GenerationSoftware,KiCad,Pcbnew,5.1.9+dfsg1-1*%
%TF.CreationDate,2022-06-22T08:53:18+01:00*%
%TF.ProjectId,ds_lite_clicky_d_pad,64735f6c-6974-4655-9f63-6c69636b795f,rev?*%
%TF.SameCoordinates,Original*%
%TF.FileFunction,Soldermask,Top*%
%TF.FilePolarity,Negative*%
%FSLAX46Y46*%
G04 Gerber Fmt 4.6, Leading zero omitted, Abs format (unit mm)*
G04 Created by KiCad (PCBNEW 5.1.9+dfsg1-1) date 2022-06-22 08:53:18*
%MOMM*%
%LPD*%
G01*
G04 APERTURE LIST*
%ADD10R,1.000000X2.000000*%
%ADD11C,1.500000*%
G04 APERTURE END LIST*
D10*
%TO.C,SW4*%
X147436840Y-90545920D03*
X152212040Y-90545920D03*
X152212040Y-97048320D03*
X147436840Y-97048320D03*
%TD*%
%TO.C,SW1*%
X140685520Y-83789520D03*
X145460720Y-83789520D03*
X145460720Y-90291920D03*
X140685520Y-90291920D03*
%TD*%
%TO.C,R1*%
G36*
G01*
X157442360Y-93772980D02*
X157442360Y-94247980D01*
G75*
G02*
X157204860Y-94485480I-237500J0D01*
G01*
X156704860Y-94485480D01*
G75*
G02*
X156467360Y-94247980I0J237500D01*
G01*
X156467360Y-93772980D01*
G75*
G02*
X156704860Y-93535480I237500J0D01*
G01*
X157204860Y-93535480D01*
G75*
G02*
X157442360Y-93772980I0J-237500D01*
G01*
G37*
G36*
G01*
X155617360Y-93772980D02*
X155617360Y-94247980D01*
G75*
G02*
X155379860Y-94485480I-237500J0D01*
G01*
X154879860Y-94485480D01*
G75*
G02*
X154642360Y-94247980I0J237500D01*
G01*
X154642360Y-93772980D01*
G75*
G02*
X154879860Y-93535480I237500J0D01*
G01*
X155379860Y-93535480D01*
G75*
G02*
X155617360Y-93772980I0J-237500D01*
G01*
G37*
%TD*%
D11*
%TO.C,TP1*%
X156575760Y-85029040D03*
%TD*%
%TO.C,TP5*%
X156575760Y-87020400D03*
%TD*%
%TO.C,TP6*%
X156570680Y-90037920D03*
%TD*%
%TO.C,TP4*%
X154071320Y-87020400D03*
%TD*%
%TO.C,TP3*%
X159821880Y-94040960D03*
%TD*%
%TO.C,TP2*%
X151571960Y-102788720D03*
%TD*%
%TO.C,TP7*%
X158577280Y-88534240D03*
%TD*%
D10*
%TO.C,SW3*%
X140685520Y-97297240D03*
X145460720Y-97297240D03*
X145460720Y-103799640D03*
X140685520Y-103799640D03*
%TD*%
%TO.C,SW2*%
X133934200Y-90551000D03*
X138709400Y-90551000D03*
X138709400Y-97053400D03*
X133934200Y-97053400D03*
%TD*%
%TO.C,SP+*%
G36*
G01*
X150602440Y-84457160D02*
X150602440Y-83457160D01*
G75*
G02*
X151102440Y-82957160I500000J0D01*
G01*
X152102440Y-82957160D01*
G75*
G02*
X152602440Y-83457160I0J-500000D01*
G01*
X152602440Y-84457160D01*
G75*
G02*
X152102440Y-84957160I-500000J0D01*
G01*
X151102440Y-84957160D01*
G75*
G02*
X150602440Y-84457160I0J500000D01*
G01*
G37*
%TD*%
M02*
